<svg xmlns="http://www.w3.org/2000/svg" width="1080" height="950" viewBox="0 0 1080 950" role="img" aria-label="AI Werewolf architecture">
  <defs>
    <marker id="arrow" markerWidth="12" markerHeight="12" refX="10" refY="6" orient="auto">
      <path d="M2 2 L10 6 L2 10 Z" fill="#8f7b6b"/>
    </marker>
  </defs>
  <rect width="1080" height="950" fill="#f7efe4"/>
  <text x="540" y="58" text-anchor="middle" font-size="34" font-weight="800" fill="#2c211b">AI Werewolf Product Architecture</text>
  <text x="540" y="88" text-anchor="middle" font-size="18" fill="#6f6259">Frontend -> Game Engine -> Cognitive Agents -> Evaluation -> Knowledge Feedback</text>
  <path d="M300 180 L360 180" stroke="#8f7b6b" stroke-width="4" marker-end="url(#arrow)" fill="none"/>
<path d="M580 180 L640 180" stroke="#8f7b6b" stroke-width="4" marker-end="url(#arrow)" fill="none"/>
<path d="M760 270 L360 330" stroke="#8f7b6b" stroke-width="4" marker-end="url(#arrow)" fill="none"/>
<path d="M440 400 L500 400" stroke="#8f7b6b" stroke-width="4" marker-end="url(#arrow)" fill="none"/>
<path d="M720 400 L780 400" stroke="#8f7b6b" stroke-width="4" marker-end="url(#arrow)" fill="none"/>
<path d="M920 520 L920 550" stroke="#8f7b6b" stroke-width="4" marker-end="url(#arrow)" fill="none"/>
<path d="M780 620 L720 620" stroke="#8f7b6b" stroke-width="4" marker-end="url(#arrow)" fill="none"/>
<path d="M500 620 L440 620" stroke="#8f7b6b" stroke-width="4" marker-end="url(#arrow)" fill="none"/>
<path d="M360 550 L360 490" stroke="#8f7b6b" stroke-width="4" marker-end="url(#arrow)" fill="none"/>
<path d="M610 720 L610 760" stroke="#8f7b6b" stroke-width="4" marker-end="url(#arrow)" fill="none"/>
<path d="M500 830 L360 490" stroke="#8f7b6b" stroke-width="4" marker-end="url(#arrow)" fill="none"/>
  <g>
  <rect x="80" y="110" width="220" height="130" rx="18" fill="#fffaf3" stroke="#dcc7ae" stroke-width="2"/>
  <text x="190" y="152" text-anchor="middle" font-size="26" font-weight="700" fill="#2c211b">Frontend</text>
  <text x="190" y="192" text-anchor="middle" font-size="19" fill="#6f6259">Next.js / React</text>
<text x="190" y="217" text-anchor="middle" font-size="19" fill="#6f6259">Room, Game, Timeline</text>
</g><g>
  <rect x="360" y="110" width="220" height="130" rx="18" fill="#fffaf3" stroke="#dcc7ae" stroke-width="2"/>
  <text x="470" y="152" text-anchor="middle" font-size="26" font-weight="700" fill="#2c211b">FastAPI</text>
  <text x="470" y="192" text-anchor="middle" font-size="19" fill="#6f6259">REST + WebSocket</text>
<text x="470" y="217" text-anchor="middle" font-size="19" fill="#6f6259">backend/app.py</text>
</g><g>
  <rect x="640" y="110" width="220" height="130" rx="18" fill="#fffaf3" stroke="#dcc7ae" stroke-width="2"/>
  <text x="750" y="152" text-anchor="middle" font-size="26" font-weight="700" fill="#2c211b">WerewolfGame</text>
  <text x="750" y="192" text-anchor="middle" font-size="19" fill="#6f6259">Phase machine</text>
<text x="750" y="217" text-anchor="middle" font-size="19" fill="#6f6259">_actions + resolution</text>
</g><g>
  <rect x="220" y="330" width="220" height="130" rx="18" fill="#f8efe4" stroke="#dcc7ae" stroke-width="2"/>
  <text x="330" y="372" text-anchor="middle" font-size="26" font-weight="700" fill="#2c211b">PlayerView</text>
  <text x="330" y="412" text-anchor="middle" font-size="19" fill="#6f6259">Visibility.for_player</text>
<text x="330" y="437" text-anchor="middle" font-size="19" fill="#6f6259">self/public/private</text>
</g><g>
  <rect x="500" y="330" width="220" height="130" rx="18" fill="#f8efe4" stroke="#dcc7ae" stroke-width="2"/>
  <text x="610" y="372" text-anchor="middle" font-size="26" font-weight="700" fill="#2c211b">CognitiveAgent</text>
  <text x="610" y="412" text-anchor="middle" font-size="19" fill="#6f6259">Observe - Think - Act</text>
<text x="610" y="437" text-anchor="middle" font-size="19" fill="#6f6259">role decisions</text>
</g><g>
  <rect x="780" y="330" width="220" height="130" rx="18" fill="#f8efe4" stroke="#dcc7ae" stroke-width="2"/>
  <text x="890" y="372" text-anchor="middle" font-size="26" font-weight="700" fill="#2c211b">AgentLoop</text>
  <text x="890" y="412" text-anchor="middle" font-size="19" fill="#6f6259">tools + LLM</text>
<text x="890" y="437" text-anchor="middle" font-size="19" fill="#6f6259">trace + strategy ids</text>
</g><g>
  <rect x="220" y="550" width="220" height="130" rx="18" fill="#eef7f1" stroke="#dcc7ae" stroke-width="2"/>
  <text x="330" y="592" text-anchor="middle" font-size="26" font-weight="700" fill="#2c211b">PostgreSQL</text>
  <text x="330" y="632" text-anchor="middle" font-size="19" fill="#6f6259">22 tables</text>
<text x="330" y="657" text-anchor="middle" font-size="19" fill="#6f6259">complete evidence chain</text>
</g><g>
  <rect x="500" y="550" width="220" height="130" rx="18" fill="#eef7f1" stroke="#dcc7ae" stroke-width="2"/>
  <text x="610" y="592" text-anchor="middle" font-size="26" font-weight="700" fill="#2c211b">Track B</text>
  <text x="610" y="632" text-anchor="middle" font-size="19" fill="#6f6259">PerStepScorer</text>
<text x="610" y="657" text-anchor="middle" font-size="19" fill="#6f6259">PublishedReview</text>
</g><g>
  <rect x="780" y="550" width="220" height="130" rx="18" fill="#eef7f1" stroke="#dcc7ae" stroke-width="2"/>
  <text x="890" y="592" text-anchor="middle" font-size="26" font-weight="700" fill="#2c211b">Track C</text>
  <text x="890" y="632" text-anchor="middle" font-size="19" fill="#6f6259">KnowledgeAbstractor</text>
<text x="890" y="657" text-anchor="middle" font-size="19" fill="#6f6259">candidate -&gt; active</text>
</g><g>
  <rect x="500" y="760" width="220" height="130" rx="18" fill="#f4edf8" stroke="#dcc7ae" stroke-width="2"/>
  <text x="610" y="802" text-anchor="middle" font-size="26" font-weight="700" fill="#2c211b">StrategyRetriever</text>
  <text x="610" y="842" text-anchor="middle" font-size="19" fill="#6f6259">BM25 + inverted index</text>
<text x="610" y="867" text-anchor="middle" font-size="19" fill="#6f6259">4-filter</text>
</g>
</svg>
