<svg xmlns="http://www.w3.org/2000/svg" width="920" height="800" viewBox="0 0 920 800" role="img" aria-label="Database evidence chain">
  <defs>
    <marker id="arrow" markerWidth="12" markerHeight="12" refX="10" refY="6" orient="auto">
      <path d="M2 2 L10 6 L2 10 Z" fill="#8f7b6b"/>
    </marker>
  </defs>
  <rect width="920" height="800" fill="#f7efe4"/>
  <text x="460" y="58" text-anchor="middle" font-size="34" font-weight="800" fill="#2c211b">Database Evidence Chain</text>
  <g>
  <circle cx="120" cy="150" r="24" fill="#9c5d2c"/>
  <text x="120" y="158" text-anchor="middle" font-size="22" font-weight="800" fill="#fffaf3">1</text>
  <rect x="175" y="110" width="650" height="80" rx="16" fill="#fffaf3" stroke="#dcc7ae" stroke-width="2"/>
  <text x="205" y="142" font-size="24" font-weight="800" fill="#2c211b">GameEvent</text>
  <text x="205" y="170" font-size="18" fill="#6f6259">phase / event_type / actor / target</text>
</g><path d="M120 176 L120 222" stroke="#8f7b6b" stroke-width="4" marker-end="url(#arrow)" fill="none"/><g>
  <circle cx="120" cy="255" r="24" fill="#9c5d2c"/>
  <text x="120" y="263" text-anchor="middle" font-size="22" font-weight="800" fill="#fffaf3">2</text>
  <rect x="175" y="215" width="650" height="80" rx="16" fill="#fffaf3" stroke="#dcc7ae" stroke-width="2"/>
  <text x="205" y="247" font-size="24" font-weight="800" fill="#2c211b">AgentDecision</text>
  <text x="205" y="275" font-size="18" fill="#6f6259">observation / raw_output / parsed_action</text>
</g><path d="M120 281 L120 327" stroke="#8f7b6b" stroke-width="4" marker-end="url(#arrow)" fill="none"/><g>
  <circle cx="120" cy="360" r="24" fill="#9c5d2c"/>
  <text x="120" y="368" text-anchor="middle" font-size="22" font-weight="800" fill="#fffaf3">3</text>
  <rect x="175" y="320" width="650" height="80" rx="16" fill="#fffaf3" stroke="#dcc7ae" stroke-width="2"/>
  <text x="205" y="352" font-size="24" font-weight="800" fill="#2c211b">DecisionScore</text>
  <text x="205" y="380" font-size="18" fill="#6f6259">correctness / reasoning / impact</text>
</g><path d="M120 386 L120 432" stroke="#8f7b6b" stroke-width="4" marker-end="url(#arrow)" fill="none"/><g>
  <circle cx="120" cy="465" r="24" fill="#9c5d2c"/>
  <text x="120" y="473" text-anchor="middle" font-size="22" font-weight="800" fill="#fffaf3">4</text>
  <rect x="175" y="425" width="650" height="80" rx="16" fill="#fffaf3" stroke="#dcc7ae" stroke-width="2"/>
  <text x="205" y="457" font-size="24" font-weight="800" fill="#2c211b">PublishedReview</text>
  <text x="205" y="485" font-size="18" fill="#6f6259">markdown / html / replay bundle</text>
</g><path d="M120 491 L120 537" stroke="#8f7b6b" stroke-width="4" marker-end="url(#arrow)" fill="none"/><g>
  <circle cx="120" cy="570" r="24" fill="#9c5d2c"/>
  <text x="120" y="578" text-anchor="middle" font-size="22" font-weight="800" fill="#fffaf3">5</text>
  <rect x="175" y="530" width="650" height="80" rx="16" fill="#fffaf3" stroke="#dcc7ae" stroke-width="2"/>
  <text x="205" y="562" font-size="24" font-weight="800" fill="#2c211b">StrategyKnowledgeDoc</text>
  <text x="205" y="590" font-size="18" fill="#6f6259">candidate / active / deprecated</text>
</g><path d="M120 596 L120 642" stroke="#8f7b6b" stroke-width="4" marker-end="url(#arrow)" fill="none"/><g>
  <circle cx="120" cy="675" r="24" fill="#9c5d2c"/>
  <text x="120" y="683" text-anchor="middle" font-size="22" font-weight="800" fill="#fffaf3">6</text>
  <rect x="175" y="635" width="650" height="80" rx="16" fill="#fffaf3" stroke="#dcc7ae" stroke-width="2"/>
  <text x="205" y="667" font-size="24" font-weight="800" fill="#2c211b">StrategyRetriever</text>
  <text x="205" y="695" font-size="18" fill="#6f6259">filtered top-k strategy</text>
</g>
</svg>
