<svg xmlns="http://www.w3.org/2000/svg" width="1130" height="510" viewBox="0 0 1130 510" role="img" aria-label="Play Evaluate Evolve loop">
  <defs>
    <marker id="arrow" markerWidth="12" markerHeight="12" refX="10" refY="6" orient="auto">
      <path d="M2 2 L10 6 L2 10 Z" fill="#8f7b6b"/>
    </marker>
  </defs>
  <rect width="1130" height="510" fill="#f7efe4"/>
  <text x="565" y="72" text-anchor="middle" font-size="36" font-weight="800" fill="#2c211b">Play -> Evaluate -> Evolve</text>
  <text x="565" y="108" text-anchor="middle" font-size="18" fill="#6f6259">Strict run evidence: f8933174-01f9-409d-8bff-c15c0576761b</text>
  <path d="M300 245 L345 245" stroke="#8f7b6b" stroke-width="5" marker-end="url(#arrow)" fill="none"/>
<path d="M540 245 L585 245" stroke="#8f7b6b" stroke-width="5" marker-end="url(#arrow)" fill="none"/>
<path d="M780 245 L825 245" stroke="#8f7b6b" stroke-width="5" marker-end="url(#arrow)" fill="none"/>
  <g>
  <rect x="110" y="170" width="190" height="150" rx="22" fill="#fffaf3" stroke="#dcc7ae" stroke-width="2"/>
  <text x="205" y="216" text-anchor="middle" font-size="29" font-weight="800" fill="#2c211b">Play</text>
  <text x="205" y="254" text-anchor="middle" font-size="17" fill="#6f6259">7-player real LLM game</text>
  <text x="205" y="292" text-anchor="middle" font-size="18" font-weight="700" fill="#9c5d2c">wolf win / 461.9s</text>
</g><g>
  <rect x="350" y="170" width="190" height="150" rx="22" fill="#f8efe4" stroke="#dcc7ae" stroke-width="2"/>
  <text x="445" y="216" text-anchor="middle" font-size="29" font-weight="800" fill="#2c211b">Audit</text>
  <text x="445" y="254" text-anchor="middle" font-size="17" fill="#6f6259">AgentDecision + GameEvent</text>
  <text x="445" y="292" text-anchor="middle" font-size="18" font-weight="700" fill="#9c5d2c">26 decisions / 68 events</text>
</g><g>
  <rect x="590" y="170" width="190" height="150" rx="22" fill="#eef7f1" stroke="#dcc7ae" stroke-width="2"/>
  <text x="685" y="216" text-anchor="middle" font-size="29" font-weight="800" fill="#2c211b">Evaluate</text>
  <text x="685" y="254" text-anchor="middle" font-size="17" fill="#6f6259">Track B scoring</text>
  <text x="685" y="292" text-anchor="middle" font-size="18" font-weight="700" fill="#9c5d2c">21 evals / 1 review</text>
</g><g>
  <rect x="830" y="170" width="190" height="150" rx="22" fill="#f4edf8" stroke="#dcc7ae" stroke-width="2"/>
  <text x="925" y="216" text-anchor="middle" font-size="29" font-weight="800" fill="#2c211b">Evolve</text>
  <text x="925" y="254" text-anchor="middle" font-size="17" fill="#6f6259">Track C lessons</text>
  <text x="925" y="292" text-anchor="middle" font-size="18" font-weight="700" fill="#9c5d2c">+102 candidate lessons</text>
</g>
  <path d="M930 330 C930 420 200 420 200 330" stroke="#9c5d2c" stroke-width="5" fill="none" marker-end="url(#arrow)" opacity="0.72"/>
  <text x="565" y="444" text-anchor="middle" font-size="19" fill="#6f6259">candidate knowledge returns to StrategyRetriever after safety filters</text>
</svg>
